<svg width="17" height="17" viewBox="0 0 17 17" fill="none" xmlns="http://www.w3.org/2000/svg">
<path d="M8.5 11.3334C10.0648 11.3334 11.3333 10.0648 11.3333 8.50002C11.3333 6.93521 10.0648 5.66669 8.5 5.66669V11.3334Z" fill="black"/>
<path fill-rule="evenodd" clip-rule="evenodd" d="M8.50002 1.41669C4.588 1.41669 1.41669 4.588 1.41669 8.50002C1.41669 12.412 4.588 15.5834 8.50002 15.5834C12.412 15.5834 15.5834 12.412 15.5834 8.50002C15.5834 4.588 12.412 1.41669 8.50002 1.41669ZM8.50002 2.83335V5.66669C6.93521 5.66669 5.66669 6.93521 5.66669 8.50002C5.66669 10.0648 6.93521 11.3334 8.50002 11.3334V14.1667C11.6296 14.1667 14.1667 11.6296 14.1667 8.50002C14.1667 5.37041 11.6296 2.83335 8.50002 2.83335Z" fill="black"/>
</svg>
