<svg width="17" height="17" viewBox="0 0 17 17" fill="none" xmlns="http://www.w3.org/2000/svg">
<path fill-rule="evenodd" clip-rule="evenodd" d="M7.79167 13.4584V15.5834H9.20833V13.4584H9.91667C11.4814 13.4584 12.75 12.1898 12.75 10.625C12.75 9.06024 11.4814 7.79169 9.91667 7.79169H9.20833V4.95835H10.625V6.37502H12.0417V3.54169H9.20833V1.41669H7.79167V3.54169H7.08333C5.51853 3.54169 4.25 4.81021 4.25 6.37502C4.25 7.9398 5.51853 9.20835 7.08333 9.20835H7.79167V12.0417H6.375V10.625H4.95833V13.4584H7.79167ZM9.20833 12.0417H9.91667C10.6991 12.0417 11.3333 11.4074 11.3333 10.625C11.3333 9.8426 10.6991 9.20835 9.91667 9.20835H9.20833V12.0417ZM7.79167 7.79169V4.95835H7.08333C6.30093 4.95835 5.66667 5.59262 5.66667 6.37502C5.66667 7.15744 6.30093 7.79169 7.08333 7.79169H7.79167Z" fill="white"/>
</svg>
