<svg width="158" height="34" viewBox="0 0 158 34" fill="none" xmlns="http://www.w3.org/2000/svg">
<path d="M12.7003 6.552C20.6683 6.552 24.0283 11.208 24.0283 16.488V16.584V33H18.0763V27.864C16.4443 31.272 14.2363 33.576 9.29225 33.576C4.39625 33.576 0.46025 30.072 0.46025 25.176C0.46025 19.176 6.26825 17.88 11.1642 17.4L18.0283 16.68V16.344V16.248C18.0283 13.224 16.3003 10.776 12.7003 10.776C9.48425 10.776 7.70825 12.696 7.37225 14.856H1.32425C1.94825 9.768 6.36425 6.552 12.7003 6.552ZM11.5963 29.784C15.8683 29.784 18.0283 26.328 18.0283 22.008V20.472L13.3723 20.952C10.1083 21.336 6.55625 21.816 6.55625 25.176C6.55625 28.104 8.86025 29.784 11.5963 29.784ZM39.1786 33.576C31.2106 33.576 26.1706 28.056 26.1706 20.04C26.1706 12.072 31.2106 6.552 39.1786 6.552C47.1946 6.552 52.2346 12.072 52.2346 20.04C52.2346 28.056 47.1946 33.576 39.1786 33.576ZM39.1786 29.352C43.6426 29.352 46.0906 25.752 46.0906 20.04C46.0906 14.376 43.6426 10.776 39.1786 10.776C34.7626 10.776 32.2666 14.376 32.2666 20.04C32.2666 25.752 34.7626 29.352 39.1786 29.352ZM64.334 33.576C58.286 33.576 53.63 30.792 52.862 25.32H58.91C59.534 28.44 62.03 29.352 64.478 29.352C68.126 29.352 70.046 28.056 70.046 26.04C70.046 24.072 68.846 23.112 65.102 22.344L61.022 21.432C56.318 20.424 53.438 18.264 53.438 14.328C53.438 9.576 58.238 6.552 64.142 6.552C69.614 6.552 74.222 8.952 75.326 13.752H69.278C68.606 11.832 66.494 10.776 64.19 10.776C61.598 10.776 59.246 11.88 59.246 13.848C59.246 15.624 60.83 16.248 63.95 16.92L68.03 17.784C73.454 18.936 75.806 21.336 75.806 25.464C75.806 30.6 70.958 33.576 64.334 33.576ZM89.5359 28.536H92.2719V33H88.5279C83.7279 33 80.0319 30.648 80.0319 25.608V25.512V11.544H74.9439V7.128H80.0319V0.983997H86.0319V7.128H92.1759V11.544H86.0319V25.224V25.32C86.0319 27.816 87.3279 28.536 89.5359 28.536ZM105.008 6.552C112.976 6.552 116.336 11.208 116.336 16.488V16.584V33H110.384V27.864C108.752 31.272 106.544 33.576 101.6 33.576C96.7044 33.576 92.7684 30.072 92.7684 25.176C92.7684 19.176 98.5764 17.88 103.472 17.4L110.336 16.68V16.344V16.248C110.336 13.224 108.608 10.776 105.008 10.776C101.792 10.776 100.016 12.696 99.6804 14.856H93.6324C94.2564 9.768 98.6724 6.552 105.008 6.552ZM103.904 29.784C108.176 29.784 110.336 26.328 110.336 22.008V20.472L105.68 20.952C102.416 21.336 98.8644 21.816 98.8644 25.176C98.8644 28.104 101.168 29.784 103.904 29.784ZM131.448 28.536H134.184V33H130.44C125.64 33 121.944 30.648 121.944 25.608V25.512V11.544H116.856V7.128H121.944V0.983997H127.944V7.128H134.088V11.544H127.944V25.224V25.32C127.944 27.816 129.24 28.536 131.448 28.536ZM145.72 33.576C139.672 33.576 135.016 30.792 134.248 25.32H140.296C140.92 28.44 143.416 29.352 145.864 29.352C149.512 29.352 151.432 28.056 151.432 26.04C151.432 24.072 150.232 23.112 146.488 22.344L142.408 21.432C137.704 20.424 134.824 18.264 134.824 14.328C134.824 9.576 139.624 6.552 145.528 6.552C151 6.552 155.608 8.952 156.712 13.752H150.664C149.992 11.832 147.88 10.776 145.576 10.776C142.984 10.776 140.632 11.88 140.632 13.848C140.632 15.624 142.216 16.248 145.336 16.92L149.416 17.784C154.84 18.936 157.192 21.336 157.192 25.464C157.192 30.6 152.344 33.576 145.72 33.576Z" fill="white"/>
</svg>
