<svg width="29" height="27" viewBox="0 0 29 27" fill="none" xmlns="http://www.w3.org/2000/svg">
<path d="M6.28792 3.26271C5.48495 1.92972 6.44495 0.230713 8.0011 0.230713L19.1281 0.230713C19.7361 0.230713 20.3112 0.507355 20.6907 0.98246L26.4052 8.13632C27.4515 9.44608 26.5189 11.3846 24.8426 11.3846H12.3105C11.6092 11.3846 10.9592 11.0173 10.5973 10.4166L6.28792 3.26271Z" fill="white"/>
<path d="M5.25763 16.9212C5.60229 16.2605 6.28568 15.8462 7.03087 15.8462H21.2394C22.7412 15.8462 23.7072 17.4397 23.0127 18.7712L19.2808 25.9251C18.9362 26.5858 18.2528 27 17.5076 27H3.29906C1.79726 27 0.831239 25.4066 1.52583 24.075L5.25763 16.9212Z" fill="white"/>
</svg>
