<svg width="17" height="14" viewBox="0 0 17 14" fill="none" xmlns="http://www.w3.org/2000/svg">
<path fill-rule="evenodd" clip-rule="evenodd" d="M2.83333 0.625C1.26853 0.625 0 1.89353 0 3.45833V10.5417C0 12.1064 1.26853 13.375 2.83333 13.375H14.1667C15.7314 13.375 17 12.1064 17 10.5417V3.45833C17 1.89353 15.7314 0.625 14.1667 0.625H2.83333ZM14.1667 2.04167H2.83333C2.05093 2.04167 1.41667 2.67593 1.41667 3.45833V8.41667H15.5833V3.45833C15.5833 2.67593 14.9491 2.04167 14.1667 2.04167ZM15.5833 9.83333H1.41667V10.5417C1.41667 11.3241 2.05093 11.9583 2.83333 11.9583H14.1667C14.9491 11.9583 15.5833 11.3241 15.5833 10.5417V9.83333Z" fill="white"/>
</svg>
