<svg width="15" height="17" viewBox="0 0 15 17" fill="none" xmlns="http://www.w3.org/2000/svg">
<path d="M7.78491 13.6282C7.78491 14.5064 7.78634 15.3846 7.78407 16.2628C7.78335 16.5156 7.55941 16.6509 7.34288 16.5346C7.22505 16.4713 7.19598 16.3642 7.19622 16.2392C7.19729 15.7215 7.19753 15.2036 7.1949 14.6859C7.18892 13.5234 7.19095 12.3609 7.16846 11.1988C7.16117 10.8207 7.1114 10.4392 7.03998 10.0671C6.88183 9.24349 6.35188 8.77551 5.54164 8.63818C4.70269 8.49594 3.86218 8.55671 3.0279 8.70086C2.77106 8.74524 2.55955 8.88473 2.37162 9.06285C2.24661 9.18129 2.12566 9.30785 1.98546 9.40595C1.52513 9.72799 0.948641 9.64712 0.574445 9.22005C0.200966 8.79381 0.200488 8.19124 0.573249 7.76118C0.924596 7.35588 1.53087 7.27561 1.98067 7.57588C2.03965 7.61523 2.1021 7.65316 2.15078 7.70364C2.49304 8.05894 2.92203 8.21565 3.40197 8.25525C4.00478 8.30489 4.60962 8.33587 5.208 8.22809C6.16957 8.05487 6.85875 7.54465 7.12145 6.56861C7.26668 6.02885 7.20686 5.4959 6.91485 5.01249C6.68457 4.63111 6.43108 4.26314 6.17376 3.89899C5.85949 3.45433 5.57442 2.9946 5.37763 2.48546C5.21661 2.06904 4.95044 1.76602 4.53497 1.57581C4.10634 1.37962 3.93217 1.01583 4.03026 0.629674C4.13517 0.216598 4.50913 -0.0370135 4.95044 0.00557413C5.34103 0.043257 5.69764 0.403576 5.70613 0.796913C5.7096 0.960206 5.68866 1.13666 5.62753 1.28607C5.49463 1.61086 5.50982 1.92728 5.60134 2.25327C5.75518 2.80116 6.06561 3.26173 6.39495 3.71488C6.65406 4.07137 6.89619 4.44019 7.14932 4.8011C7.1772 4.84082 7.22792 4.86439 7.26811 4.89537C7.30747 4.84285 7.38248 4.78902 7.3808 4.73782C7.36477 4.24675 7.3503 3.75484 7.30544 3.2658C7.27625 2.94723 7.07061 2.71419 6.83733 2.50688C6.56745 2.26702 6.42988 1.97082 6.46744 1.60141C6.50883 1.19504 6.8158 0.831367 7.22158 0.718677C7.65356 0.59869 8.07584 0.750857 8.34728 1.12446C8.58725 1.45463 8.59419 1.92202 8.35781 2.26738C8.29811 2.35459 8.22944 2.44048 8.14894 2.50771C7.80608 2.79434 7.65631 3.16986 7.63394 3.60315C7.61611 3.94768 7.60834 4.2928 7.59996 4.63781C7.59853 4.69715 7.60582 4.76127 7.6276 4.81582C7.66839 4.91822 7.74543 4.92755 7.80835 4.83568C8.22957 4.22139 8.65676 3.61081 9.06301 2.98671C9.25992 2.68417 9.37429 2.34131 9.43757 1.98159C9.48339 1.72116 9.43733 1.48202 9.34797 1.23858C9.16518 0.74033 9.38756 0.224972 9.84586 0.0547411C10.2452 -0.0935977 10.6848 0.0682593 10.8783 0.4348C11.0693 0.796794 10.9634 1.21765 10.6163 1.47209C10.5756 1.50188 10.534 1.53538 10.4874 1.55177C10.0011 1.7226 9.73628 2.09237 9.56031 2.55329C9.31172 3.20467 8.888 3.75304 8.50794 4.32809C8.28555 4.66461 8.04617 5.00722 7.91327 5.38202C7.50426 6.53547 8.17657 7.7625 9.39319 8.1343C9.64273 8.2105 9.90771 8.25094 10.1685 8.27235C10.7718 8.322 11.3752 8.30848 11.9724 8.19388C12.2961 8.13179 12.5639 7.9691 12.8015 7.74276C13.1253 7.43424 13.5047 7.30767 13.9472 7.44046C14.3546 7.56284 14.692 7.96264 14.7251 8.36758C14.7653 8.85841 14.5592 9.22459 14.1363 9.46516C13.7454 9.68755 13.2976 9.64245 12.9417 9.35714C12.8786 9.30654 12.8131 9.25534 12.7618 9.19361C12.4563 8.82611 12.0542 8.65313 11.5893 8.63459C10.9718 8.61006 10.353 8.58721 9.73556 8.60205C9.29521 8.61257 8.87627 8.74201 8.52086 9.02505C8.1353 9.33202 7.9744 9.75299 7.90107 10.2232C7.7879 10.9487 7.78886 11.6794 7.78742 12.4102C7.78658 12.8163 7.7873 13.2224 7.7873 13.6285H7.78503L7.78491 13.6282Z" fill="white"/>
<path d="M3.47342 3.65866C3.32257 3.62313 3.16191 3.60961 3.02302 3.54741C2.7139 3.40912 2.5542 3.09115 2.6072 2.77545C2.65732 2.47698 2.92134 2.23258 3.24469 2.18532C3.53671 2.14262 3.85671 2.32935 3.99393 2.62579C4.02144 2.68525 4.04596 2.74805 4.059 2.81205C4.13114 3.16615 4.32685 3.44118 4.59398 3.67469C5.0189 4.04614 5.42671 4.43409 5.73368 4.9144C5.91515 5.19827 6.06911 5.49507 6.12151 5.83218C6.16757 6.12826 6.12474 6.40951 5.93812 6.65499C5.77112 6.87462 5.53785 6.97511 5.28076 6.89735C4.94832 6.79674 4.66647 6.85512 4.36573 7.01088C3.9243 7.23961 3.49914 7.1579 3.12327 6.83814C2.76869 6.53643 2.63316 6.05529 2.78927 5.62379C2.95555 5.1643 3.29267 4.90913 3.77836 4.86583C4.35149 4.81475 4.89891 5.31204 4.98026 5.92956C5.00083 6.08615 5.04928 6.24705 5.12202 6.38666C5.2042 6.54445 5.35745 6.62544 5.54431 6.58943C5.72458 6.55462 5.79301 6.4113 5.83345 6.25351C5.91025 5.95409 5.85366 5.66566 5.72327 5.39602C5.39644 4.71976 4.89784 4.19711 4.25364 3.81537C4.01749 3.67541 3.75515 3.6193 3.47318 3.65878L3.47342 3.65866Z" fill="white"/>
<path d="M8.84369 6.03193C8.84512 5.63656 9.00244 5.29263 9.20544 4.96665C9.49829 4.49651 9.88158 4.10544 10.3033 3.75182C10.615 3.49032 10.8347 3.18347 10.9373 2.77805C11.0652 2.27274 11.5366 2.05143 11.9735 2.25563C12.264 2.39141 12.4292 2.69826 12.3762 3.00355C12.3179 3.33863 12.0258 3.59403 11.6612 3.62466C11.5754 3.63184 11.4887 3.6304 11.4024 3.62944C11.1581 3.62657 10.9301 3.68651 10.7201 3.80924C10.1144 4.16334 9.64627 4.6525 9.30928 5.26619C9.15436 5.5484 9.0833 5.85118 9.12326 6.17477C9.15245 6.4108 9.27674 6.56715 9.45535 6.59502C9.63898 6.62361 9.81854 6.50446 9.91221 6.28973C9.92824 6.25289 9.94092 6.21377 9.94857 6.17441C9.96987 6.06507 9.98817 5.95513 10.0067 5.84531C10.0992 5.29778 10.5599 4.88638 11.1084 4.86197C11.6012 4.83996 12.0786 5.19609 12.2046 5.70296C12.321 6.17106 12.1777 6.56942 11.8075 6.87208C11.4511 7.16338 11.05 7.21482 10.6245 7.02927C10.5643 7.00307 10.5058 6.97161 10.4499 6.93716C10.2665 6.82399 10.0753 6.80653 9.86603 6.85737C9.22052 7.01432 8.83843 6.70257 8.84381 6.03205L8.84369 6.03193Z" fill="white"/>
<path d="M9.73302 9.44866C10.0644 9.45046 10.3178 9.54389 10.5519 9.69617C10.6283 9.74594 10.708 9.79247 10.7777 9.85061C11.1251 10.1401 11.5039 10.2052 11.9437 10.0834C12.4469 9.94416 12.9085 10.1953 13.0781 10.6543C13.2502 11.1207 13.0351 11.6313 12.5862 11.822C12.1377 12.0124 11.6198 11.8192 11.399 11.3746C11.3542 11.2845 11.322 11.1872 11.2914 11.091C11.1205 10.5528 10.7709 10.1584 10.3002 9.86425C10.0656 9.71771 9.8097 9.67536 9.54114 9.753C9.27855 9.82896 9.11371 9.99668 9.07854 10.2754C9.06968 10.3458 9.06466 10.4169 9.0637 10.4878C9.05054 11.4369 9.04014 12.386 9.02255 13.3351C9.02123 13.4082 8.95604 13.5456 8.94503 13.5432C8.82253 13.5159 8.87457 13.4076 8.87385 13.3318C8.86404 12.347 8.86943 11.3621 8.84861 10.3777C8.83461 9.71819 9.3416 9.43694 9.7329 9.44878L9.73302 9.44866Z" fill="white"/>
<path d="M6.10482 11.81C6.10482 12.3278 6.10482 12.8456 6.10482 13.3634C6.10482 13.3938 6.11403 13.4299 6.10111 13.4535C6.08173 13.4886 6.04632 13.5151 6.01785 13.5451C5.99572 13.5117 5.95529 13.4788 5.95433 13.4447C5.94488 13.1251 5.94117 12.8053 5.93758 12.4854C5.92993 11.8104 5.92693 11.1351 5.91521 10.4601C5.90636 9.94836 5.63648 9.6859 5.12722 9.72801C4.94467 9.74308 4.7492 9.81964 4.59535 9.92204C4.14926 10.2187 3.82519 10.6179 3.66465 11.1421C3.52325 11.6039 3.21724 11.8664 2.82594 11.8892C2.34216 11.9174 1.91868 11.577 1.86999 11.1206C1.81436 10.5991 2.14501 10.1286 2.63417 10.0628C2.79029 10.0418 2.96267 10.0514 3.11292 10.096C3.51559 10.2159 3.86012 10.126 4.18024 9.87264C4.42034 9.68267 4.67802 9.52428 4.98654 9.46626C5.60466 9.3501 6.17337 9.74715 6.1364 10.4093C6.11044 10.8749 6.13138 11.343 6.13138 11.81C6.12253 11.81 6.11379 11.81 6.10494 11.81H6.10482Z" fill="white"/>
<path d="M12.9548 5.55413C12.955 4.98746 13.4193 4.52294 13.9798 4.5288C14.5437 4.53466 15.0025 4.99116 15 5.54397C14.9975 6.10825 14.5362 6.56762 13.9717 6.56834C13.4129 6.56906 12.9547 6.11208 12.9548 5.55413Z" fill="white"/>
<path d="M1.01475 4.53505C1.5764 4.53852 2.03613 4.99598 2.03494 5.55034C2.03374 6.10673 1.55535 6.57938 1.00051 6.57244C0.462784 6.56562 -0.00627675 6.08519 6.35401e-05 5.54794C0.00688234 4.97313 0.449266 4.53159 1.01475 4.53505Z" fill="white"/>
</svg>
